<?xml version="1.0" encoding="utf-8"?>
<!-- Generator: Adobe Illustrator 22.1.0, SVG Export Plug-In . SVG Version: 6.00 Build 0)  -->
<svg version="1.1" id="Layer_1" xmlns="http://www.w3.org/2000/svg" xmlns:xlink="http://www.w3.org/1999/xlink" x="0px" y="0px"
	 viewBox="0 0 345 337.2" style="enable-background:new 0 0 345 337.2;" xml:space="preserve">
<style type="text/css">
	.st0{clip-path:url(#SVGID_2_);fill:#FFFFFF;stroke:#4d4d4d;stroke-miterlimit:10;}
	.st1{clip-path:url(#SVGID_4_);fill:#FFFFFF;stroke:#4d4d4d;stroke-miterlimit:10;}
	.st2{clip-path:url(#SVGID_6_);fill:#FFFFFF;stroke:#4d4d4d;stroke-miterlimit:10;}
	.st3{clip-path:url(#SVGID_8_);fill:#FFFFFF;stroke:#4d4d4d;stroke-miterlimit:10;}
	.st4{clip-path:url(#SVGID_10_);fill:#FFFFFF;stroke:#4d4d4d;stroke-miterlimit:10;}
	.st5{clip-path:url(#SVGID_12_);fill:#FFFFFF;stroke:#4d4d4d;stroke-miterlimit:10;}
	.st6{clip-path:url(#SVGID_14_);fill:#FFFFFF;stroke:#4d4d4d;stroke-miterlimit:10;}
	.st7{clip-path:url(#SVGID_16_);fill:#FFFFFF;stroke:#4d4d4d;stroke-miterlimit:10;}
	.st8{clip-path:url(#SVGID_18_);fill:#FFFFFF;stroke:#4d4d4d;stroke-miterlimit:10;}
	.st9{clip-path:url(#SVGID_20_);fill:#FFFFFF;stroke:#4d4d4d;stroke-miterlimit:10;}
	.st10{clip-path:url(#SVGID_22_);fill:#FFFFFF;stroke:#4d4d4d;stroke-miterlimit:10;}
	.st11{clip-path:url(#SVGID_24_);fill:#FFFFFF;stroke:#4d4d4d;stroke-miterlimit:10;}
	.st12{clip-path:url(#SVGID_26_);fill:#FFFFFF;stroke:#4d4d4d;stroke-miterlimit:10;}
	.st13{clip-path:url(#SVGID_28_);fill:#FFFFFF;stroke:#4d4d4d;stroke-miterlimit:10;}
	.st14{clip-path:url(#SVGID_30_);fill:#FFFFFF;stroke:#4d4d4d;stroke-miterlimit:10;}
	.st15{clip-path:url(#SVGID_32_);fill:#FFFFFF;stroke:#4d4d4d;stroke-miterlimit:10;}
	.st16{clip-path:url(#SVGID_34_);fill:#FFFFFF;stroke:#4d4d4d;stroke-miterlimit:10;}
	.st17{clip-path:url(#SVGID_36_);fill:#FFFFFF;stroke:#4d4d4d;stroke-miterlimit:10;}
	.st18{clip-path:url(#SVGID_38_);fill:#FFFFFF;stroke:#4d4d4d;stroke-miterlimit:10;}
	.st19{clip-path:url(#SVGID_40_);fill:#FFFFFF;stroke:#4d4d4d;stroke-miterlimit:10;}
	.st20{clip-path:url(#SVGID_42_);fill:#FFFFFF;stroke:#4d4d4d;stroke-miterlimit:10;}
	.st21{clip-path:url(#SVGID_44_);fill:#FFFFFF;stroke:#4d4d4d;stroke-miterlimit:10;}
	.st22{clip-path:url(#SVGID_46_);fill:#FFFFFF;stroke:#4d4d4d;stroke-miterlimit:10;}
	.st23{clip-path:url(#SVGID_48_);fill:#FFFFFF;stroke:#4d4d4d;stroke-miterlimit:10;}
	.st24{clip-path:url(#SVGID_50_);fill:#FFFFFF;stroke:#4d4d4d;stroke-miterlimit:10;}
	.st25{clip-path:url(#SVGID_52_);fill:#FFFFFF;stroke:#4d4d4d;stroke-miterlimit:10;}
	.st26{clip-path:url(#SVGID_54_);fill:#FFFFFF;stroke:#4d4d4d;stroke-miterlimit:10;}
	.st27{clip-path:url(#SVGID_56_);fill:#FFFFFF;stroke:#4d4d4d;stroke-miterlimit:10;}
	.st28{clip-path:url(#SVGID_58_);fill:#FFFFFF;stroke:#4d4d4d;stroke-miterlimit:10;}
	.st29{clip-path:url(#SVGID_60_);fill:#FFFFFF;stroke:#4d4d4d;stroke-miterlimit:10;}
	.st30{clip-path:url(#SVGID_62_);fill:#FFFFFF;stroke:#4d4d4d;stroke-miterlimit:10;}
	.st31{clip-path:url(#SVGID_64_);fill:#FFFFFF;stroke:#4d4d4d;stroke-miterlimit:10;}
	.st32{clip-path:url(#SVGID_66_);fill:#FFFFFF;stroke:#4d4d4d;stroke-miterlimit:10;}
	.st33{clip-path:url(#SVGID_68_);fill:#FFFFFF;stroke:#4d4d4d;stroke-miterlimit:10;}
	.st34{clip-path:url(#SVGID_70_);fill:#FFFFFF;stroke:#4d4d4d;stroke-miterlimit:10;}
	.st35{clip-path:url(#SVGID_72_);fill:#FFFFFF;stroke:#4d4d4d;stroke-miterlimit:10;}
	.st36{clip-path:url(#SVGID_74_);fill:#FFFFFF;stroke:#4d4d4d;stroke-miterlimit:10;}
	.st37{clip-path:url(#SVGID_76_);fill:#FFFFFF;stroke:#4d4d4d;stroke-miterlimit:10;}
	.st38{clip-path:url(#SVGID_78_);fill:#FFFFFF;stroke:#4d4d4d;stroke-miterlimit:10;}
	.st39{clip-path:url(#SVGID_80_);fill:#FFFFFF;stroke:#4d4d4d;stroke-miterlimit:10;}
	.st40{clip-path:url(#SVGID_82_);fill:#FFFFFF;stroke:#4d4d4d;stroke-miterlimit:10;}
	.st41{clip-path:url(#SVGID_84_);fill:#FFFFFF;stroke:#4d4d4d;stroke-miterlimit:10;}
	.st42{clip-path:url(#SVGID_86_);fill:#FFFFFF;stroke:#4d4d4d;stroke-miterlimit:10;}
	.st43{clip-path:url(#SVGID_88_);fill:#FFFFFF;stroke:#4d4d4d;stroke-miterlimit:10;}
	.st44{clip-path:url(#SVGID_90_);fill:#FFFFFF;stroke:#4d4d4d;stroke-miterlimit:10;}
	.st45{clip-path:url(#SVGID_92_);fill:#FFFFFF;stroke:#4d4d4d;stroke-miterlimit:10;}
	.st46{clip-path:url(#SVGID_94_);fill:#FFFFFF;stroke:#4d4d4d;stroke-miterlimit:10;}
	.st47{clip-path:url(#SVGID_96_);fill:#FFFFFF;stroke:#4d4d4d;stroke-miterlimit:10;}
	.st48{clip-path:url(#SVGID_98_);fill:#FFFFFF;stroke:#4d4d4d;stroke-miterlimit:10;}
	.st49{clip-path:url(#SVGID_100_);fill:#FFFFFF;stroke:#4d4d4d;stroke-miterlimit:10;}
	.st50{clip-path:url(#SVGID_102_);fill:#FFFFFF;stroke:#4d4d4d;stroke-miterlimit:10;}
	.st51{clip-path:url(#SVGID_104_);fill:#FFFFFF;stroke:#4d4d4d;stroke-miterlimit:10;}
</style>
<g>
	<g>
		<defs>
			<rect id="SVGID_1_" x="-5" width="392.4" height="337.2"/>
		</defs>
		<clipPath id="SVGID_2_">
			<use xlink:href="#SVGID_1_"  style="overflow:visible;"/>
		</clipPath>
		<path class="st0" d="M53.8,33.7c0.5,0.6,1.1,1.1,1.7,1.5c0.8,0.5,1.7,0.8,2.6,1.1c1.6,0.5,3.3,0.9,5,1.2s3.8,0.4,4.9-0.8
			c0.5-0.5,0.7-1.1,0.9-1.8c1.3-4.2,1.5-8.8,0.5-13c-0.2-0.7-0.4-1.4-0.4-2.1c-0.1-1.2,0-2.4-0.3-3.6c-0.4-1.5-1.8-2.7-3.3-3.4
			s-3.3-0.9-5-1c-0.5,0-1.1,0-1.5,0.2s-0.8,0.4-1.1,0.7c-1.5,1.2-3,2.5-4.5,3.7c-1.5,1.3-3.1,2.6-4.1,4.2s-1.4,3.7-0.5,5.4
			c0.3,0.5,0.7,1,1,1.5c0.3,0.6,0.5,1.2,0.8,1.8C51.3,31.1,52.5,32.4,53.8,33.7z"/>
	</g>
	<g>
		<defs>
			<rect id="SVGID_3_" x="-5" width="392.4" height="337.2"/>
		</defs>
		<clipPath id="SVGID_4_">
			<use xlink:href="#SVGID_3_"  style="overflow:visible;"/>
		</clipPath>
		<path class="st1" d="M80.4,31.1c0.5,0.1,1,0.3,1.5,0.2c1.3,0,2.4-0.9,3.4-1.7c1.3-1.1,2.7-2.2,3.6-3.6c1-1.4,1.5-3.1,2-4.8
			c0.4-1.4,0.8-2.9,1-4.4c0.2-1.6,0.3-3.2,0.4-4.8c0-1.1,0.1-2.3-0.5-3.3c-1-1.7-3.8-2.2-6.2-2.3c-1.6-0.1-3.2-0.1-4.7-0.1
			c-2.7,0-5.4,0.2-7.8,1.3s-4.4,3.2-4.6,5.6c0,1,0.2,1.9,0.5,2.9c0.8,3,1.6,6,3.5,8.5c0.4,0.5,0.8,1,1.2,1.4
			C75.5,28.2,77.6,30.3,80.4,31.1z"/>
	</g>
	<g>
		<defs>
			<rect id="SVGID_5_" x="-5" width="392.4" height="337.2"/>
		</defs>
		<clipPath id="SVGID_6_">
			<use xlink:href="#SVGID_5_"  style="overflow:visible;"/>
		</clipPath>
		<path class="st2" d="M56.6,38.5c-0.3-0.7-0.8-1.4-1.2-2.1c-0.5-0.7-0.9-1.4-1.4-2.1c-0.7-1-1.4-2-2.4-2.7c-1.7-1.1-3.9-1.2-6-1.1
			c-0.6,0-1.3,0-1.9,0.2c-1.9,0.4-3.3,1.8-4.6,3.1c-1.2,1.2-2.4,2.4-2.9,3.9c-0.3,1-0.4,2-0.4,3c0,1.4,0.1,2.8,0.2,4.2
			c0.1,1.4,0.3,2.9,1.3,3.9c0.5,0.5,1.1,0.9,1.7,1.2c4.2,2.6,8.7,5.3,13.7,5.2c0.7,0,1.4-0.1,1.9-0.4c0.5-0.3,0.7-0.9,0.9-1.4
			c1.1-2.8,1.3-5.8,1.6-8.7C57.3,42.6,57.5,40.4,56.6,38.5z"/>
	</g>
	<g>
		<defs>
			<rect id="SVGID_7_" x="-5" width="392.4" height="337.2"/>
		</defs>
		<clipPath id="SVGID_8_">
			<use xlink:href="#SVGID_7_"  style="overflow:visible;"/>
		</clipPath>
		<path class="st3" d="M49.9,67.9c0.2-0.4,0.3-0.8,0.4-1.2c0.5-2.4,1.1-5,0.3-7.3c-1.1-3.3-4.6-5.5-7.8-7.4
			c-2.8-1.6-6.1-3.2-9.3-2.4c-1.4,0.4-2.6,1.2-3.8,1.9c-1.1,0.8-2.3,1.5-3,2.6c-0.8,1.3-0.9,2.8-0.9,4.3c0,0.9,0,1.8,0.3,2.6
			c0.3,1,1,1.9,1.6,2.8c0.6,0.8,1.2,1.6,2,2.2c0.7,0.5,1.6,0.9,2.4,1.2c3.8,1.5,7.7,3,11.8,3.2C46.1,70.6,49,69.9,49.9,67.9z"/>
	</g>
	<g>
		<defs>
			<rect id="SVGID_9_" x="-5" width="392.4" height="337.2"/>
		</defs>
		<clipPath id="SVGID_10_">
			<use xlink:href="#SVGID_9_"  style="overflow:visible;"/>
		</clipPath>
		<path class="st4" d="M32.6,83.4c2,0.8,4.3,1,6.5,0.7c0.6-0.1,1.3-0.2,1.8-0.6c0.8-0.7,0.9-1.8,0.9-2.8c0-1.5,0-3.1-0.7-4.5
			c-0.3-0.6-0.7-1.2-1.2-1.7c-1.1-1.5-2.3-2.9-3.4-4.4c-0.5-0.7-1.1-1.4-1.8-1.8c-0.5-0.3-1.1-0.5-1.6-0.7c-1.6-0.7-2.9-1.7-4.4-2.4
			c-1.5-0.8-3.3-1.3-5-0.9c-1.1,0.3-2,0.9-2.8,1.6c-2.8,2.5-4.3,6.2-3.8,9.8c0.1,0.9,0.3,1.7,0.8,2.5c0.8,1.1,2.1,1.8,3.5,2.5
			c1.1,0.5,2.3,0.3,3.5,0.4c1.1,0.1,2.1,0.6,3.2,0.7C29.7,82,31.1,82.9,32.6,83.4z"/>
	</g>
	<g>
		<defs>
			<rect id="SVGID_11_" x="-5" width="392.4" height="337.2"/>
		</defs>
		<clipPath id="SVGID_12_">
			<use xlink:href="#SVGID_11_"  style="overflow:visible;"/>
		</clipPath>
		<path class="st5" d="M37.8,90.5c-1.8-3-3.8-6.1-7.1-7.8c-2.2-1.1-4.7-1.4-7.2-1.8c-1-0.1-2.1-0.3-3.1-0.4
			c-0.4-0.1-0.9-0.1-1.3-0.1c-0.9,0.1-1.7,0.5-2.4,1c-1.9,1.3-3.6,2.9-4.9,4.8c-2.5,3.6-3.6,8-3.5,12.3c0,0.5,0,1,0.2,1.5
			c0.2,0.6,0.6,1.1,1,1.6c1.3,1.8,2.7,3.5,4.5,4.9c1,0.8,2.2,1.4,3.5,1.7c0.9,0.2,0.1,0.1,2.8,0.7c1.4,0.3,2.9,0.6,4.3,0.9
			c2.3,0.5,4.5,0,6.9-0.1c0.6,0,1.2,0,1.8-0.2c0.7-0.2,1.4-0.7,1.9-1.3c3.2-3.1,4-7.6,4.1-11.9c0-1.4,0-2.7-0.4-4
			C38.5,91.8,38.2,91.1,37.8,90.5z"/>
	</g>
	<g>
		<defs>
			<rect id="SVGID_13_" x="-5" width="392.4" height="337.2"/>
		</defs>
		<clipPath id="SVGID_14_">
			<use xlink:href="#SVGID_13_"  style="overflow:visible;"/>
		</clipPath>
		<path class="st6" d="M14.3,107.6c-1.2-0.3-2.5,0-3.6,0.4c-3.1,1.3-5.5,3.4-6.1,6.4c-0.4,1.7-0.1,5.9,0.5,9.8
			c0.4,3,1.3,5.7,3.6,7.9c0.4,0.4,0.9,0.8,1.5,1.1s1.2,0.5,1.9,0.6c4.8,1.2,9.6,2.4,14.5,2.8c1.3,0.1,2.8,0.1,3.8-0.7
			c1.1-0.8,2.1-3.9,2.3-5.1c0.4-2.5-0.1-3.3,0.3-5.7c0.5-3.5,0.3-7.1-0.8-10.4c-2.2-1.8-4.3-3.2-6.9-4c-0.6-0.2-1.4-0.9-2-1.1
			c-1-0.3-1.8-0.3-2.9-0.6c-1.1-0.3-2.4-0.2-3.5-0.5C15.9,108.2,15.1,107.8,14.3,107.6z"/>
	</g>
	<g>
		<defs>
			<rect id="SVGID_15_" x="-5" width="392.4" height="337.2"/>
		</defs>
		<clipPath id="SVGID_16_">
			<use xlink:href="#SVGID_15_"  style="overflow:visible;"/>
		</clipPath>
		<path class="st7" d="M20.8,154c0.6-0.2,1.1-0.4,1.7-0.6c0.5-0.2,1-0.3,1.5-0.6c0.4-0.2,0.8-0.5,1.1-0.7c1.8-1.3,3.5-2.7,4.5-4.6
			c1-1.8,1.3-4.1,0.2-6c-0.1-0.2-0.3-0.5-0.5-0.7c-0.3-0.3-0.7-0.6-1.1-0.8c-1.9-1.2-3.8-2.3-5.7-3.5c-0.6-0.4-1.2-0.7-1.9-1
			c-0.5-0.2-1.1-0.3-1.7-0.5c-2-0.4-4.1-0.9-6.1-1.3c-1.2-0.3-2.4-0.5-3.5-0.2c-0.8,0.2-1.5,0.7-2.2,1.3c-2.4,1.8-5.1,3.9-5.3,6.8
			c-0.1,1.3,0.3,2.5,0.7,3.7c0.7,2,1.4,3.9,2.9,5.5c2.3,2.5,5.9,3.6,9.4,3.9c1,0.1,2,0.2,3,0C18.8,154.7,19.8,154.4,20.8,154z"/>
	</g>
	<g>
		<defs>
			<rect id="SVGID_17_" x="-5" width="392.4" height="337.2"/>
		</defs>
		<clipPath id="SVGID_18_">
			<use xlink:href="#SVGID_17_"  style="overflow:visible;"/>
		</clipPath>
		<path class="st8" d="M131.5,33.5c-0.5,0.6-1.1,1.1-1.7,1.5c-0.8,0.5-1.7,0.8-2.6,1.1c-1.6,0.5-3.3,0.9-5,1.2s-3.8,0.4-4.9-0.8
			c-0.5-0.5-0.7-1.1-0.9-1.8c-1.3-4.2-1.5-8.8-0.5-13c0.2-0.7,0.4-1.4,0.4-2.1c0.1-1.2,0-2.4,0.3-3.6c0.4-1.5,1.8-2.7,3.3-3.4
			s3.3-0.9,5-1c0.5,0,1.1,0,1.5,0.2s0.8,0.4,1.1,0.7c1.5,1.2,3,2.5,4.5,3.7c1.5,1.3,3.1,2.6,4.1,4.2s1.4,3.7,0.5,5.4
			c-0.3,0.5-0.7,1-1,1.5c-0.3,0.6-0.5,1.2-0.8,1.8C134,30.9,132.7,32.2,131.5,33.5z"/>
	</g>
	<g>
		<defs>
			<rect id="SVGID_19_" x="-5" width="392.4" height="337.2"/>
		</defs>
		<clipPath id="SVGID_20_">
			<use xlink:href="#SVGID_19_"  style="overflow:visible;"/>
		</clipPath>
		<path class="st9" d="M104.8,30.9c-0.5,0.1-1,0.3-1.5,0.2c-1.3,0-2.4-0.9-3.4-1.7c-1.3-1.1-2.7-2.2-3.6-3.6c-1-1.4-1.5-3.1-2-4.8
			c-0.4-1.4-0.8-2.9-1-4.4c-0.2-1.6-0.3-3.2-0.4-4.8c0-1.1-0.1-2.3,0.5-3.3c1.1-1.9,3.8-2.4,6.2-2.5c1.6-0.1,3.2-0.1,4.7-0.1
			c2.7,0,5.4,0.2,7.8,1.3s4.4,3.2,4.6,5.6c0,1-0.2,1.9-0.5,2.9c-0.8,3-1.6,6-3.5,8.5c-0.4,0.5-0.8,1-1.2,1.4
			C109.8,27.9,107.7,30.1,104.8,30.9z"/>
	</g>
	<g>
		<defs>
			<rect id="SVGID_21_" x="-5" width="392.4" height="337.2"/>
		</defs>
		<clipPath id="SVGID_22_">
			<use xlink:href="#SVGID_21_"  style="overflow:visible;"/>
		</clipPath>
		<path class="st10" d="M128.7,38.2c0.3-0.7,0.8-1.4,1.2-2.1c0.5-0.7,0.9-1.4,1.4-2.1c0.7-1,1.4-2,2.4-2.7c1.7-1.1,3.9-1.2,6-1.1
			c0.6,0,1.3,0,1.9,0.2c1.9,0.4,3.3,1.8,4.6,3.1c1.2,1.2,2.4,2.4,2.9,3.9c0.3,1,0.4,2,0.4,3c0,1.4-0.1,2.8-0.2,4.2
			c-0.1,1.4-0.3,2.9-1.3,3.9c-0.5,0.5-1.1,0.9-1.7,1.2c-4.2,2.6-8.7,5.3-13.7,5.2c-0.7,0-1.4-0.1-1.9-0.4c-0.5-0.3-0.7-0.9-0.9-1.4
			c-1.1-2.8-1.3-5.8-1.6-8.7C128,42.4,127.8,40.2,128.7,38.2z"/>
	</g>
	<g>
		<defs>
			<rect id="SVGID_23_" x="-5" width="392.4" height="337.2"/>
		</defs>
		<clipPath id="SVGID_24_">
			<use xlink:href="#SVGID_23_"  style="overflow:visible;"/>
		</clipPath>
		<path class="st11" d="M135.4,67.7c-0.2-0.4-0.3-0.8-0.4-1.2c-0.5-2.4-1.1-5-0.3-7.3c1.1-3.3,4.6-5.5,7.8-7.4
			c2.8-1.6,6.1-3.2,9.3-2.4c1.4,0.4,2.6,1.2,3.8,1.9c1.1,0.8,2.3,1.5,3,2.6c0.8,1.3,0.9,2.8,0.9,4.3c0,0.9,0,1.8-0.3,2.6
			c-0.3,1-1,1.9-1.6,2.8c-0.6,0.8-1.2,1.6-2,2.2c-0.7,0.5-1.6,0.9-2.4,1.2c-3.8,1.5-7.7,3-11.8,3.2
			C139.1,70.3,136.3,69.7,135.4,67.7z"/>
	</g>
	<g>
		<defs>
			<rect id="SVGID_25_" x="-5" width="392.4" height="337.2"/>
		</defs>
		<clipPath id="SVGID_26_">
			<use xlink:href="#SVGID_25_"  style="overflow:visible;"/>
		</clipPath>
		<path class="st12" d="M152.7,83.2c-2,0.8-4.3,1-6.5,0.7c-0.6-0.1-1.3-0.2-1.8-0.6c-0.8-0.7-0.9-1.8-0.9-2.8c0-1.5,0-3.1,0.7-4.5
			c0.3-0.6,0.7-1.2,1.2-1.7c1.1-1.5,2.3-2.9,3.4-4.4c0.5-0.7,1.1-1.4,1.8-1.8c0.5-0.3,1.1-0.5,1.6-0.7c1.6-0.7,2.9-1.7,4.4-2.4
			c1.5-0.8,3.3-1.3,5-0.9c1.1,0.3,2,0.9,2.8,1.6c2.8,2.5,4.3,6.2,3.8,9.8c-0.1,0.9-0.3,1.7-0.8,2.5c-0.8,1.1-2.1,1.8-3.5,2.5
			c-1.1,0.5-2.3,0.3-3.5,0.4c-1.1,0.1-2.1,0.6-3.2,0.7C155.6,81.8,154.2,82.6,152.7,83.2z"/>
	</g>
	<g>
		<defs>
			<rect id="SVGID_27_" x="-5" width="392.4" height="337.2"/>
		</defs>
		<clipPath id="SVGID_28_">
			<use xlink:href="#SVGID_27_"  style="overflow:visible;"/>
		</clipPath>
		<path class="st13" d="M147.5,90.3c1.8-3,3.8-6.1,7.1-7.8c2.2-1.1,4.7-1.4,7.2-1.8c1-0.1,2.1-0.3,3.1-0.4c0.4-0.1,0.9-0.1,1.3-0.1
			c0.9,0.1,1.7,0.5,2.4,1c1.9,1.3,3.6,2.9,4.9,4.8c2.5,3.6,3.6,8,3.5,12.3c0,0.5,0,1-0.2,1.5c-0.2,0.6-0.6,1.1-1,1.6
			c-1.3,1.8-2.7,3.5-4.5,4.9c-1,0.8-2.2,1.4-3.5,1.7c-0.9,0.2-0.1,0.1-2.8,0.7c-1.4,0.3-2.9,0.6-4.3,0.9c-2.3,0.5-4.5,0-6.9-0.1
			c-0.6,0-1.2,0-1.8-0.2c-0.7-0.2-1.4-0.7-1.9-1.3c-3.2-3.1-4-7.6-4.1-11.9c0-1.4,0-2.7,0.4-4C146.7,91.6,147.1,90.9,147.5,90.3z"/>
	</g>
	<g>
		<defs>
			<rect id="SVGID_29_" x="-5" width="392.4" height="337.2"/>
		</defs>
		<clipPath id="SVGID_30_">
			<use xlink:href="#SVGID_29_"  style="overflow:visible;"/>
		</clipPath>
		<path class="st14" d="M171,107.3c1.2-0.3,2.5,0,3.6,0.4c3.1,1.3,5.5,3.4,6.1,6.4c0.4,1.7,0.1,5.9-0.5,9.8c-0.4,3-1.3,5.7-3.6,7.9
			c-0.4,0.4-0.9,0.8-1.5,1.1s-1.2,0.5-1.9,0.6c-4.8,1.2-9.6,2.4-14.5,2.8c-1.3,0.1-2.8,0.1-3.8-0.7c-1.1-0.8-2.1-3.9-2.3-5.1
			c-0.4-2.5,0.1-3.3-0.3-5.7c-0.5-3.5-0.3-7.1,0.8-10.4c2.2-1.8,4.3-3.2,6.9-4c0.6-0.2,1.4-0.9,2-1.1c1-0.3,1.8-0.3,2.9-0.6
			c1.1-0.3,2.4-0.2,3.5-0.5C169.4,108,170.1,107.5,171,107.3z"/>
	</g>
	<g>
		<defs>
			<rect id="SVGID_31_" x="-5" width="392.4" height="337.2"/>
		</defs>
		<clipPath id="SVGID_32_">
			<use xlink:href="#SVGID_31_"  style="overflow:visible;"/>
		</clipPath>
		<path class="st15" d="M164.4,153.8c-0.6-0.2-1.1-0.4-1.7-0.6c-0.5-0.2-1-0.3-1.5-0.6c-0.4-0.2-0.8-0.5-1.1-0.7
			c-1.8-1.3-3.5-2.7-4.5-4.6c-1-1.8-1.3-4.1-0.2-6c0.1-0.2,0.3-0.5,0.5-0.7c0.3-0.3,0.7-0.6,1.1-0.8c1.9-1.2,3.8-2.3,5.7-3.5
			c0.6-0.4,1.2-0.7,1.9-1c0.5-0.2,1.1-0.3,1.7-0.5c2-0.4,4.1-0.9,6.1-1.3c1.2-0.3,2.4-0.5,3.5-0.2c0.8,0.2,1.5,0.7,2.2,1.3
			c2.4,1.8,5.1,3.9,5.3,6.8c0.1,1.3-0.3,2.5-0.7,3.7c-0.7,2-1.4,3.9-2.9,5.5c-2.3,2.5-5.9,3.6-9.4,3.9c-1,0.1-2,0.2-3,0
			C166.4,154.5,165.4,154.1,164.4,153.8z"/>
	</g>
	<g>
		<defs>
			<rect id="SVGID_33_" x="-5" width="392.4" height="337.2"/>
		</defs>
		<clipPath id="SVGID_34_">
			<use xlink:href="#SVGID_33_"  style="overflow:visible;"/>
		</clipPath>
		<path class="st16" d="M10.1,195.6c-0.6,2.8-1,5.8,0.5,8.3c0.6,1,1.5,1.9,2.1,3c0.4,0.7,0.6,1.4,1,2.1c0.7,1.1,1.8,1.9,2.8,2.7
			c0.8,0.6,1.6,1.2,2.6,1.5c1.4,0.5,3,0.3,4.4,0c4.8-0.9,9.4-3,13.2-5.9c0.4-0.3,0.8-0.6,1-1s0.3-0.9,0.3-1.3
			c0.4-4.4,0.8-9.1-1.6-13c-2.3-3.7-6.8-6-11.5-6.3c-2.4-0.2-4.8,0.1-7,1c-0.8,0.3-1.6,0.7-2.3,1.2c-1.6,1.1-2.7,2.7-3.8,4.2
			c-0.5,0.7-1,1.4-1.3,2.2C10.3,194.6,10.2,195.1,10.1,195.6z"/>
	</g>
	<g>
		<defs>
			<rect id="SVGID_35_" x="-5" width="392.4" height="337.2"/>
		</defs>
		<clipPath id="SVGID_36_">
			<use xlink:href="#SVGID_35_"  style="overflow:visible;"/>
		</clipPath>
		<path class="st17" d="M18.8,237.8c0.1,0.1,0.3,0.1,0.4,0.2c1.8,0.7,3.5,1.5,5.4,1.9c0.9,0.2,1.8,0.2,2.8,0.1
			c0.8-0.1,1.6-0.3,2.4-0.6c1.4-0.4,2.8-0.9,4.2-1.3c1.2-0.4,2.4-0.7,3.5-1.4c2.4-1.4,3.7-4,4.1-6.6c0.4-2.6-0.1-5.2-0.5-7.8
			c-0.2-1.4-0.5-2.8-1.2-4.1c-1-1.8-2.8-3.3-4.8-4.1c-2-0.9-4.3-1.2-6.5-1.2c-3.7-0.1-7.4,0.6-10.7,2c-0.9,0.4-1.7,0.8-2.4,1.4
			c-0.9,0.8-1.5,1.9-1.9,3c-1.1,2.8-1.7,5.9-1.6,8.9c0,0.9,0.1,1.9,0.6,2.7c0.3,0.7,0.9,1.2,1.2,1.9c0.3,0.6,0.4,1.2,0.7,1.8
			C15.2,236.1,17.1,237,18.8,237.8z"/>
	</g>
	<g>
		<defs>
			<rect id="SVGID_37_" x="-5" width="392.4" height="337.2"/>
		</defs>
		<clipPath id="SVGID_38_">
			<use xlink:href="#SVGID_37_"  style="overflow:visible;"/>
		</clipPath>
		<path class="st18" d="M20.5,255.3c0.6,3,1.2,6.1,3,8.6c0.6,0.8,1.3,1.6,2.3,2c0.7,0.3,1.6,0.4,2.4,0.5c1.5,0.2,2.9,0.4,4.4,0.6
			c1.6,0.2,3.4,0.8,4.8,0c0.6-0.3,2.1-0.9,2.7-1.2c1.4-0.6,2.2-0.5,3.7-0.9c1.3-0.3,2.4-1.3,3.1-2.4c0.7-1.1,1-2.3,1.3-3.6
			c0.4-1.7,0.7-3.5,0.8-5.2c0.2-2.7,0.2-5.4-0.7-7.9c-0.8-2.2-2.3-4.3-4.5-5.5c-1.8-1-4-1.3-6.1-1.7c-0.9-0.1-1.7-0.6-2.6-0.6
			c-1.1,0-2.4,0.3-3.5,0.6c-2.5,0.8-5,2.1-6.9,3.9c-0.9,0.9-1.6,2-2.2,3c-1.1,1.7-2.2,3.5-2.4,5.5C20,252.5,20.3,253.9,20.5,255.3z"
			/>
	</g>
	<g>
		<defs>
			<rect id="SVGID_39_" x="-5" width="392.4" height="337.2"/>
		</defs>
		<clipPath id="SVGID_40_">
			<use xlink:href="#SVGID_39_"  style="overflow:visible;"/>
		</clipPath>
		<path class="st19" d="M37,284.6c1.8,0.7,3.8,1.1,5.7,0.6c1-0.3,1.9-0.9,2.7-1.5c2.3-1.7,4.3-3.8,5.5-6.3s1.3-5.4,0-7.9
			c-1.5-2.7-5-4.4-8.4-4.1c-2.1,0.2-4.1,1.2-6,2.2c-0.5,0.3-1,0.5-1.4,0.9s-0.8,0.8-1.1,1.3c-1.2,1.7-2.4,3.5-2.9,5.4
			c-0.5,2-0.4,4.1,0.7,5.9C33,282.8,35,283.8,37,284.6z"/>
	</g>
	<g>
		<defs>
			<rect id="SVGID_41_" x="-5" width="392.4" height="337.2"/>
		</defs>
		<clipPath id="SVGID_42_">
			<use xlink:href="#SVGID_41_"  style="overflow:visible;"/>
		</clipPath>
		<path class="st20" d="M49.2,302.3c3.6-1.7,7.1-4,8.5-7.5c1.1-2.8,0.7-5.8,0.2-8.7c-0.1-0.4-1-1.6-1.3-1.8c-2.1-1.2-4.5-2.4-7-2
			c-0.7,0.1-1.4,0.4-2.1,0.7c-2.1,0.9-3.9,2.2-5.6,3.6c-1.7,1.6-3.2,3.4-4,5.5s-0.8,4.5,0.2,6.5s3.3,3.6,5.7,3.7
			c0.8,0,1.6-0.1,2.4,0.1C46.7,302.5,48.7,302.5,49.2,302.3z"/>
	</g>
	<g>
		<defs>
			<rect id="SVGID_43_" x="-5" width="392.4" height="337.2"/>
		</defs>
		<clipPath id="SVGID_44_">
			<use xlink:href="#SVGID_43_"  style="overflow:visible;"/>
		</clipPath>
		<path class="st21" d="M48.3,313.5c0.4,1.4,1.6,2.5,2.8,3.5c0.7,0.6,1.5,1.3,2.5,1.5c0.6,0.1,1.3,0.1,1.9,0.2
			c0.5,0.1,1,0.4,1.5,0.5c1.6,0.4,3.2-0.6,4.3-1.7c1.5-1.5,2.5-3.5,3.5-5.3c0.7-1.4,1.4-2.7,2.1-4.1c1.3-2.5,2.7-5.2,2.7-8
			c0-0.6,0-1.2-0.4-1.8c-0.3-0.5-0.8-0.8-1.3-1.2c-2-1.4-4.2-2.8-6.7-2.7c-2.6,0.1-4.5,2.4-6.3,4c-0.7,0.6-1.3,0.9-2,1.6
			c-0.9,0.8-2.1,1.5-2.7,2.4c-1.7,2.4-2,5.4-2.1,8.2C48.1,311.7,48,312.6,48.3,313.5z"/>
	</g>
	<g>
		<defs>
			<rect id="SVGID_45_" x="-5" width="392.4" height="337.2"/>
		</defs>
		<clipPath id="SVGID_46_">
			<use xlink:href="#SVGID_45_"  style="overflow:visible;"/>
		</clipPath>
		<path class="st22" d="M74.2,327.4c0.4,0,0.7-0.1,1-0.3c0.3-0.2,0.5-0.5,0.6-0.8c1.4-5.5,1.4-11.5,2-17.3c0.1-1.2,0.1-2-1-3.2
			c-0.3-0.3-0.3-0.6-1.8-1.2c-1.7-0.5-3.4,0.7-4.7,2c-2.6,2.6-4.9,5.4-6.8,8.4c-1,1.5-1.9,3.2-1.5,4.9c0.3,1.3,1.2,2.4,2.2,3.3
			C66.8,325.5,70.4,327.6,74.2,327.4z"/>
	</g>
	<g>
		<defs>
			<rect id="SVGID_47_" x="-5" width="392.4" height="337.2"/>
		</defs>
		<clipPath id="SVGID_48_">
			<use xlink:href="#SVGID_47_"  style="overflow:visible;"/>
		</clipPath>
		<path class="st23" d="M90.2,310c-0.6-1.9-1.7-3.8-3.7-4.5c-1.2-0.4-2.7-0.2-3.7,0.6c-1.2,0.9-1.8,2.3-2,3.7
			c-0.2,1.4-0.2,2.8-0.5,4.2c-0.4,1.7-1.4,3.1-2.1,4.7c-1.1,2.2-1.7,4.6-2.3,7c-0.3,1-0.5,2.2,0.3,3c0.7,0.7,1.9,0.6,2.8,0.9
			c2.1,0.5,4,1.4,6.1,1.3c2.4-0.1,4.9-1.6,6-3.6c1.1-1.8,0.8-4.8,0.7-6.9c0-1.3-0.2-2.3-0.4-3.6c-0.3-1.3-0.2-2.3-0.4-3.6
			C90.7,312.2,90.5,311.1,90.2,310z"/>
	</g>
	<g>
		<defs>
			<rect id="SVGID_49_" x="-5" width="392.4" height="337.2"/>
		</defs>
		<clipPath id="SVGID_50_">
			<use xlink:href="#SVGID_49_"  style="overflow:visible;"/>
		</clipPath>
		<path class="st24" d="M173.5,194.5c0.6,2.8,1,5.8-0.5,8.3c-0.6,1-1.5,1.9-2.1,3c-0.4,0.7-0.6,1.4-1,2.1c-0.7,1.1-1.8,1.9-2.8,2.7
			c-0.8,0.6-1.6,1.2-2.6,1.5c-1.4,0.5-3,0.3-4.4,0c-4.8-0.9-9.4-3-13.2-5.9c-0.4-0.3-0.8-0.6-1-1s-0.3-0.9-0.3-1.3
			c-0.4-4.4-0.8-9.1,1.6-13c2.3-3.7,6.8-6,11.5-6.3c2.4-0.2,4.8,0.1,7,1c0.8,0.3,1.6,0.7,2.3,1.2c1.6,1.1,2.7,2.7,3.8,4.2
			c0.5,0.7,1,1.4,1.3,2.2C173.3,193.4,173.4,194,173.5,194.5z"/>
	</g>
	<g>
		<defs>
			<rect id="SVGID_51_" x="-5" width="392.4" height="337.2"/>
		</defs>
		<clipPath id="SVGID_52_">
			<use xlink:href="#SVGID_51_"  style="overflow:visible;"/>
		</clipPath>
		<path class="st25" d="M164.8,236.6c-0.1,0.1-0.3,0.1-0.4,0.2c-1.8,0.7-3.5,1.5-5.4,1.9c-0.9,0.2-1.8,0.2-2.8,0.1
			c-0.8-0.1-1.6-0.3-2.4-0.6c-1.4-0.4-2.8-0.9-4.2-1.3c-1.2-0.4-2.4-0.7-3.5-1.4c-2.4-1.4-3.7-4-4.1-6.6c-0.4-2.6,0.1-5.2,0.5-7.8
			c0.2-1.4,0.5-2.8,1.2-4.1c1-1.8,2.8-3.3,4.8-4.1c2-0.9,4.3-1.2,6.5-1.2c3.7-0.1,7.4,0.6,10.7,2c0.9,0.4,1.7,0.8,2.4,1.4
			c0.9,0.8,1.5,1.9,1.9,3c1.1,2.8,1.7,5.9,1.6,8.9c0,0.9-0.1,1.9-0.6,2.7c-0.3,0.7-0.9,1.2-1.2,1.9c-0.3,0.6-0.4,1.2-0.7,1.8
			C168.4,235,166.5,235.9,164.8,236.6z"/>
	</g>
	<g>
		<defs>
			<rect id="SVGID_53_" x="-5" width="392.4" height="337.2"/>
		</defs>
		<clipPath id="SVGID_54_">
			<use xlink:href="#SVGID_53_"  style="overflow:visible;"/>
		</clipPath>
		<path class="st26" d="M163.1,254.2c-0.6,3-1.2,6.1-3,8.6c-0.6,0.8-1.3,1.6-2.3,2c-0.7,0.3-1.6,0.4-2.4,0.5L151,266
			c-1.6,0.2-3.4,0.8-4.8,0c-0.6-0.3-2.1-0.9-2.7-1.2c-1.4-0.6-2.2-0.5-3.7-0.9c-1.3-0.3-2.4-1.3-3.1-2.4c-0.7-1.1-1-2.3-1.3-3.6
			c-0.4-1.7-0.7-3.5-0.8-5.2c-0.2-2.7-0.2-5.4,0.7-7.9c0.8-2.2,2.3-4.3,4.5-5.5c1.8-1,4-1.3,6.1-1.7c0.9-0.1,1.7-0.6,2.6-0.6
			c1.1,0,2.4,0.3,3.5,0.6c2.5,0.8,5,2.1,6.9,3.9c0.9,0.9,1.6,2,2.2,3c1.1,1.7,2.2,3.5,2.4,5.5C163.6,251.4,163.3,252.8,163.1,254.2z
			"/>
	</g>
	<g>
		<defs>
			<rect id="SVGID_55_" x="-5" width="392.4" height="337.2"/>
		</defs>
		<clipPath id="SVGID_56_">
			<use xlink:href="#SVGID_55_"  style="overflow:visible;"/>
		</clipPath>
		<path class="st27" d="M146.6,283.5c-1.8,0.7-3.8,1.1-5.7,0.6c-1-0.3-1.9-0.9-2.7-1.5c-2.3-1.7-4.3-3.8-5.5-6.3s-1.3-5.4,0-7.9
			c1.5-2.7,5-4.4,8.4-4.1c2.1,0.2,4.1,1.2,6,2.2c0.5,0.3,1,0.5,1.4,0.9s0.8,0.8,1.1,1.3c1.2,1.7,2.4,3.5,2.9,5.4
			c0.5,2,0.4,4.1-0.7,5.9C150.6,281.6,148.6,282.7,146.6,283.5z"/>
	</g>
	<g>
		<defs>
			<rect id="SVGID_57_" x="-5" width="392.4" height="337.2"/>
		</defs>
		<clipPath id="SVGID_58_">
			<use xlink:href="#SVGID_57_"  style="overflow:visible;"/>
		</clipPath>
		<path class="st28" d="M134.4,301.2c-3.6-1.7-7.1-4-8.5-7.5c-1.1-2.8-0.7-5.8-0.2-8.7c0.1-0.4,1-1.6,1.3-1.8c2.1-1.2,4.5-2.4,7-2
			c0.7,0.1,1.4,0.4,2.1,0.7c2.1,0.9,3.9,2.2,5.6,3.6c1.7,1.6,3.2,3.4,4,5.5s0.8,4.5-0.2,6.5s-3.3,3.6-5.7,3.7
			c-0.8,0-1.6-0.1-2.4,0.1C136.9,301.4,134.9,301.4,134.4,301.2z"/>
	</g>
	<g>
		<defs>
			<rect id="SVGID_59_" x="-5" width="392.4" height="337.2"/>
		</defs>
		<clipPath id="SVGID_60_">
			<use xlink:href="#SVGID_59_"  style="overflow:visible;"/>
		</clipPath>
		<path class="st29" d="M135.3,312.3c-0.4,1.4-1.6,2.5-2.8,3.5c-0.7,0.6-1.5,1.3-2.5,1.5c-0.6,0.1-1.3,0.1-1.9,0.2
			c-0.5,0.1-1,0.4-1.5,0.5c-1.6,0.4-3.2-0.6-4.3-1.7c-1.5-1.5-2.5-3.5-3.5-5.3c-0.7-1.4-1.4-2.7-2.1-4.1c-1.3-2.5-2.7-5.2-2.7-8
			c0-0.6,0-1.2,0.4-1.8c0.3-0.5,0.8-0.8,1.3-1.2c2-1.4,4.2-2.8,6.7-2.7c2.6,0.1,4.5,2.4,6.3,4c0.7,0.6,1.3,0.9,2,1.6
			c0.9,0.8,2.1,1.5,2.7,2.4c1.7,2.4,2,5.4,2.1,8.2C135.5,310.6,135.6,311.5,135.3,312.3z"/>
	</g>
	<g>
		<defs>
			<rect id="SVGID_61_" x="-5" width="392.4" height="337.2"/>
		</defs>
		<clipPath id="SVGID_62_">
			<use xlink:href="#SVGID_61_"  style="overflow:visible;"/>
		</clipPath>
		<path class="st30" d="M109.4,326.2c-0.4,0-0.7-0.1-1-0.3c-0.3-0.2-0.5-0.5-0.6-0.8c-1.4-5.5-1.4-11.5-2-17.3c-0.1-1.2-0.1-2,1-3.2
			c0.3-0.3,0.3-0.6,1.8-1.2c1.7-0.5,3.4,0.7,4.7,2c2.6,2.6,4.9,5.4,6.8,8.4c1,1.5,1.9,3.2,1.5,4.9c-0.3,1.3-1.2,2.4-2.2,3.3
			C116.8,324.4,113.2,326.5,109.4,326.2z"/>
	</g>
	<g>
		<defs>
			<rect id="SVGID_63_" x="-5" width="392.4" height="337.2"/>
		</defs>
		<clipPath id="SVGID_64_">
			<use xlink:href="#SVGID_63_"  style="overflow:visible;"/>
		</clipPath>
		<path class="st31" d="M93.4,308.9c0.6-1.9,1.7-3.8,3.7-4.5c1.2-0.4,2.7-0.2,3.7,0.6c1.2,0.9,1.8,2.3,2,3.7
			c0.2,1.4,0.2,2.8,0.5,4.2c0.4,1.7,1.4,3.1,2.1,4.7c1.1,2.2,1.7,4.6,2.3,7c0.3,1,0.5,2.2-0.3,3c-0.7,0.7-1.9,0.6-2.8,0.9
			c-2.1,0.5-4,1.4-6.1,1.3c-2.4-0.1-4.9-1.6-6-3.6c-1.1-1.8-0.8-4.8-0.7-6.9c0-1.3,0.2-2.3,0.4-3.6c0.3-1.3,0.2-2.3,0.4-3.6
			C92.9,311.1,93.1,310,93.4,308.9z"/>
	</g>
	<g>
		<defs>
			<rect id="SVGID_65_" x="-5" width="392.4" height="337.2"/>
		</defs>
		<clipPath id="SVGID_66_">
			<use xlink:href="#SVGID_65_"  style="overflow:visible;"/>
		</clipPath>
		<path class="st32" d="M207.5,136.9c0.4,0.8,0.6,1.8,1.1,2.6c0.7,1.1,1.9,1.9,3,2.6c1.3,0.8,2.7,1.7,4.3,1.7c0.8,0,1.5-0.3,2.2-0.5
			c1.7-0.6,3.4-1.1,5-1.7c1.1-0.4,2.2-0.8,2.9-1.6c0.5-0.6,0.6-1.4,0.8-2.2c0.4-2.1,0.8-4.2,0.4-6.2c-0.3-1.3-0.6-2.3-0.8-3.6
			c-0.3-2.5-0.4-3.5-0.4-5.3c0-0.9-0.3-2.1-0.7-2.9c-0.3-0.6-0.8-1.1-1.3-1.6c-1.5-1.5-3-3-4.9-4.1s-4.2-1.6-6.4-1.1
			c-1.5,0.4-2.8,1.3-4,2.2c-0.6,0.4-1.2,0.9-1.7,1.5c-0.8,1-1.1,2.2-1.4,3.4c-0.7,3.2-0.7,5.6-0.6,8.8c0,1.2-0.3,3.3,0.2,4.4
			C205.9,134.7,206.9,135.7,207.5,136.9z"/>
	</g>
	<g>
		<defs>
			<rect id="SVGID_67_" x="-5" width="392.4" height="337.2"/>
		</defs>
		<clipPath id="SVGID_68_">
			<use xlink:href="#SVGID_67_"  style="overflow:visible;"/>
		</clipPath>
		<path class="st33" d="M229.5,143.3c-2.5-1.3-5.7-1.6-8.4-0.8c-4.1,1.3-7,5.3-6.5,9.1c0.2,1.2,0.3,1.8,0.4,3c0.1,0.8,0.3,2.2,0.5,3
			c0.1,0.7,0.5,1.4,0.9,2.1c0.6,1.1,1.3,2.3,1.9,3.4c0.6,1,1.2,2.1,2,3c1.3,1.4,3.2,2.2,5.1,3c0.8,0.4,1.7,0.7,2.6,0.8
			c1.2,0.1,2.5-0.2,3.6-0.7c3.3-1.4,5.7-4.5,6.1-7.8c0.1-1,0.1-2-0.1-3c-0.2-1.2-0.7-2.3-1.2-3.4c-1.1-2.7-2.5-4.8-3.8-7.5
			c-0.4-0.8-0.7-2.3-1.4-2.9C230.9,144.2,230.2,143.7,229.5,143.3z"/>
	</g>
	<g>
		<defs>
			<rect id="SVGID_69_" x="-5" width="392.4" height="337.2"/>
		</defs>
		<clipPath id="SVGID_70_">
			<use xlink:href="#SVGID_69_"  style="overflow:visible;"/>
		</clipPath>
		<path class="st34" d="M257.5,187.9c-0.6,1.2-0.7,2.5-0.7,3.8c0,1.1,0,2.3,0.9,3c0.5,0.4,1.3,0.6,2,0.7c2.4,0.5,4.9,0.9,7.3,1.2
			c1.1,0.1,2.4,0.2,3.3-0.4c1-0.7,1.1-2,1.1-3.1c0.1-1.4,0.1-2.9-0.2-4.2c-0.3-1.5-1.1-3-1.8-4.4c-0.4-0.8-0.8-1.5-1.4-2.1
			s-1.5-1.1-2.4-1.1c-1.2,0-2.2,0.9-3,1.6c-1.1,1-2.1,1.9-3.2,2.9C258.6,186.5,257.9,187.1,257.5,187.9z"/>
	</g>
	<g>
		<defs>
			<rect id="SVGID_71_" x="-5" width="392.4" height="337.2"/>
		</defs>
		<clipPath id="SVGID_72_">
			<use xlink:href="#SVGID_71_"  style="overflow:visible;"/>
		</clipPath>
		<path class="st35" d="M234.7,184.1c2.9,0,5.8-0.5,8.4-1.4c0.6-0.2,1.1-0.4,1.5-0.8c0.8-0.7,1-1.8,1.1-2.8c0.3-2.2,0.6-4.5-0.1-6.6
			c-1.2-3.5-5.3-6-9.3-5.7c-0.5,0-1,0.1-1.5,0.4c-0.4,0.2-0.8,0.6-1.1,0.9c-2.1,2.2-4.1,4.7-4.5,7.6c-0.3,2.4,0.4,4.9,2,6.7
			c0.5,0.6,1.2,1.2,1.9,1.4C233.7,184.1,234.2,184.1,234.7,184.1z"/>
	</g>
	<g>
		<defs>
			<rect id="SVGID_73_" x="-5" width="392.4" height="337.2"/>
		</defs>
		<clipPath id="SVGID_74_">
			<use xlink:href="#SVGID_73_"  style="overflow:visible;"/>
		</clipPath>
		<path class="st36" d="M242.2,188.2c0.3,0.9,1,1.7,1.7,2.4c1.3,1.4,2.6,2.8,4.5,3.4c1.1,0.4,2.3,0.5,3.4,0.6s2.5,0.3,3.5-0.2
			c1.4-0.6,1.1-5.3,1-8.3c0-0.6,0-1.3-0.1-1.9c-0.4-2.1-2.1-3.9-4.2-4.7c-0.5-0.2-1-0.3-1.6-0.3c-0.9,0-1.8,0.3-2.6,0.6
			c-1.7,0.8-3.2,2-4.3,3.4C242.3,184.7,241.6,186.5,242.2,188.2z"/>
	</g>
	<g>
		<defs>
			<rect id="SVGID_75_" x="-5" width="392.4" height="337.2"/>
		</defs>
		<clipPath id="SVGID_76_">
			<use xlink:href="#SVGID_75_"  style="overflow:visible;"/>
		</clipPath>
		<path class="st37" d="M256,9.9c-1.1,0.4-2.3,0.8-2.9,1.8s-0.2,2.2,0.3,3.3c1.1,2.5,2.6,4.9,4.4,7.1c1.4,1.6,3,3.1,5,4
			c0.8,0.3,1.7,0.5,2.5,0.3c1-0.3,1.5-1.3,1.9-2.1c1.5-3,2.8-6,4-9.1c0.4-1,0.8-2,0.6-3.1c-0.4-2.1-2.9-3.3-5.2-3.6
			C263,8,259.4,8.8,256,9.9z"/>
	</g>
	<g>
		<defs>
			<rect id="SVGID_77_" x="-5" width="392.4" height="337.2"/>
		</defs>
		<clipPath id="SVGID_78_">
			<use xlink:href="#SVGID_77_"  style="overflow:visible;"/>
		</clipPath>
		<path class="st38" d="M242.9,14.1c-0.6,0.2-1.2,0.4-1.7,0.7c-0.6,0.4-1.1,0.9-1.6,1.4c-1.6,1.6-4.2,2.8-4.3,5
			c-0.1,1.8,1.5,3.3,3,4.4c1.6,1.1,3.2,2.1,4.8,3c0.8,0.5,1.7,1,2.5,1.5c1,0.5,2,1,3.1,1.1s2.3-0.1,3.1-0.8c0.8-0.8,1-1.9,1.1-3
			c0.2-1.7,0.4-3.3,0.6-5c0.2-2,0.5-4.1-0.1-6.1c-0.3-1.1-1-2.3-2.1-2.9c-1.9-1.1-4.4-0.5-6.5,0.1C244.2,13.7,243.5,13.9,242.9,14.1
			z"/>
	</g>
	<g>
		<defs>
			<rect id="SVGID_79_" x="-5" width="392.4" height="337.2"/>
		</defs>
		<clipPath id="SVGID_80_">
			<use xlink:href="#SVGID_79_"  style="overflow:visible;"/>
		</clipPath>
		<path class="st39" d="M228,41.6c-2.6-1-5.6-1.8-8.2-0.9c-1.7,0.6-3,1.8-4.2,3.1c-2.5,2.8-4.4,6.1-5.6,9.5
			c-0.5,1.5-0.9,3.2-0.5,4.7c0.2,0.7,0.5,1.3,0.8,1.9c1.6,2.9,4.1,5.7,7.6,6.6c2.2,0.5,4.6,0.2,6.5-0.9c2.7-1.6,4.2-4.5,5.5-7.2
			c1.8-3.6,3.6-7.5,2.9-11.5c-0.2-1.2-0.6-2.3-1.4-3.3C230.7,42.7,229.4,42.1,228,41.6z"/>
	</g>
	<g>
		<defs>
			<rect id="SVGID_81_" x="-5" width="392.4" height="337.2"/>
		</defs>
		<clipPath id="SVGID_82_">
			<use xlink:href="#SVGID_81_"  style="overflow:visible;"/>
		</clipPath>
		<path class="st40" d="M241.2,41.4c1.2-1.5,2.4-3.2,3-5s0.6-3.9-0.3-5.6c-0.7-1.2-1.8-2.2-2.9-3.1c-0.4-0.3-0.8-0.6-1.2-0.8
			c-0.6-0.2-1.2-0.2-1.8-0.2c-2.2,0-4.4-0.1-6.6-0.1c-1.5,0-3.2,0-4.2,1c-1,0.9-1.1,2.4-1.1,3.8c0,2.3,0,4.6,0,6.9
			c0,0.4,0,0.7,0.1,1.1c0.2,0.5,0.5,0.8,0.9,1.2c1,1,2.1,2.1,3.6,2.6c0.9,0.3,1.8,0.3,2.8,0.6c1.2,0.3,2.3,0.8,3.5,0.8
			C238.7,44.2,240.1,42.8,241.2,41.4z"/>
	</g>
	<g>
		<defs>
			<rect id="SVGID_83_" x="-5" width="392.4" height="337.2"/>
		</defs>
		<clipPath id="SVGID_84_">
			<use xlink:href="#SVGID_83_"  style="overflow:visible;"/>
		</clipPath>
		<path class="st41" d="M219.1,94.1c3.2-2.6,5.1-6.4,6.1-10.2c0.9-3.9,0.9-7.8,0.7-11.8c0-0.9-0.1-1.8-0.6-2.6
			c-0.9-1.6-3-2.2-4.9-2.6c-2.7-0.6-5.4-1.3-8.1-1.9c-0.7-0.2-1.4-0.3-2.1-0.2c-0.8,0.2-1.4,0.7-2,1.3c-3.4,3.5-4.7,8.3-5.8,12.9
			c-0.7,2.8-1.4,5.7-0.2,8.4c0.7,1.6,2.1,2.9,3.5,4.2c1.5,1.4,3.1,2.7,5,3.6s4.2,1.2,6.2,0.4C217.8,95.1,218.5,94.6,219.1,94.1z"/>
	</g>
	<g>
		<defs>
			<rect id="SVGID_85_" x="-5" width="392.4" height="337.2"/>
		</defs>
		<clipPath id="SVGID_86_">
			<use xlink:href="#SVGID_85_"  style="overflow:visible;"/>
		</clipPath>
		<path class="st42" d="M336.2,136.9c-0.4,0.8-0.6,1.8-1.1,2.6c-0.7,1.1-1.9,1.9-3,2.6c-1.3,0.8-2.7,1.7-4.3,1.7
			c-0.8,0-1.5-0.3-2.2-0.5l-5-1.7c-1.1-0.4-2.2-0.8-2.9-1.6c-0.5-0.6-0.6-1.4-0.8-2.2c-0.4-2.1-0.8-4.2-0.4-6.2
			c0.3-1.3,0.6-2.3,0.8-3.6c0.3-2.5,0.4-3.5,0.4-5.3c0-0.9,0.3-2.1,0.7-2.9c0.3-0.6,0.8-1.1,1.3-1.6c1.5-1.5,3-3,4.9-4.1
			s4.2-1.6,6.4-1.1c1.5,0.4,2.8,1.3,4,2.2c0.6,0.4,1.2,0.9,1.7,1.5c0.8,1,1.1,2.2,1.4,3.4c0.7,3.2,0.7,5.6,0.6,8.8
			c0,1.2,0.3,3.3-0.2,4.4C337.8,134.7,336.8,135.7,336.2,136.9z"/>
	</g>
	<g>
		<defs>
			<rect id="SVGID_87_" x="-5" width="392.4" height="337.2"/>
		</defs>
		<clipPath id="SVGID_88_">
			<use xlink:href="#SVGID_87_"  style="overflow:visible;"/>
		</clipPath>
		<path class="st43" d="M314.2,143.3c2.5-1.3,5.7-1.6,8.4-0.8c4.1,1.3,7,5.3,6.5,9.1c-0.2,1.2-0.3,1.8-0.4,3c-0.1,0.8-0.3,2.2-0.5,3
			c-0.1,0.7-0.5,1.4-0.9,2.1c-0.6,1.1-1.3,2.3-1.9,3.4c-0.6,1-1.2,2.1-2,3c-1.3,1.4-3.2,2.2-5.1,3c-0.8,0.4-1.7,0.7-2.6,0.8
			c-1.2,0.1-2.5-0.2-3.6-0.7c-3.3-1.4-5.7-4.5-6.1-7.8c-0.1-1-0.1-2,0.1-3c0.2-1.2,0.7-2.3,1.2-3.4c1.1-2.7,2.5-4.8,3.8-7.5
			c0.4-0.8,0.7-2.3,1.4-2.9C312.9,144.2,313.5,143.7,314.2,143.3z"/>
	</g>
	<g>
		<defs>
			<rect id="SVGID_89_" x="-5" width="392.4" height="337.2"/>
		</defs>
		<clipPath id="SVGID_90_">
			<use xlink:href="#SVGID_89_"  style="overflow:visible;"/>
		</clipPath>
		<path class="st44" d="M286.2,187.9c0.6,1.2,0.7,2.5,0.7,3.8c0,1.1,0,2.3-0.9,3c-0.5,0.4-1.3,0.6-2,0.7c-2.4,0.5-4.9,0.9-7.3,1.2
			c-1.1,0.1-2.4,0.2-3.3-0.4c-1-0.7-1.1-2-1.1-3.1c-0.1-1.4-0.1-2.9,0.2-4.2c0.3-1.5,1.1-3,1.8-4.4c0.4-0.8,0.8-1.5,1.4-2.1
			s1.5-1.1,2.4-1.1c1.2,0,2.2,0.9,3,1.6c1.1,1,2.1,1.9,3.2,2.9C285.1,186.5,285.8,187.1,286.2,187.9z"/>
	</g>
	<g>
		<defs>
			<rect id="SVGID_91_" x="-5" width="392.4" height="337.2"/>
		</defs>
		<clipPath id="SVGID_92_">
			<use xlink:href="#SVGID_91_"  style="overflow:visible;"/>
		</clipPath>
		<path class="st45" d="M309.1,184.1c-2.9,0-5.8-0.5-8.4-1.4c-0.6-0.2-1.1-0.4-1.5-0.8c-0.8-0.7-1-1.8-1.1-2.8
			c-0.3-2.2-0.6-4.5,0.1-6.6c1.2-3.5,5.3-6,9.3-5.7c0.5,0,1,0.1,1.5,0.4c0.4,0.2,0.8,0.6,1.1,0.9c2.1,2.2,4.1,4.7,4.5,7.6
			c0.3,2.4-0.4,4.9-2,6.7c-0.5,0.6-1.2,1.2-1.9,1.4C310.1,184.1,309.6,184.1,309.1,184.1z"/>
	</g>
	<g>
		<defs>
			<rect id="SVGID_93_" x="-5" width="392.4" height="337.2"/>
		</defs>
		<clipPath id="SVGID_94_">
			<use xlink:href="#SVGID_93_"  style="overflow:visible;"/>
		</clipPath>
		<path class="st46" d="M301.6,188.2c-0.3,0.9-1,1.7-1.7,2.4c-1.3,1.4-2.6,2.8-4.5,3.4c-1.1,0.4-2.3,0.5-3.4,0.6s-2.5,0.3-3.5-0.2
			c-1.4-0.6-1.1-5.3-1-8.3c0-0.6,0-1.3,0.1-1.9c0.4-2.1,2.1-3.9,4.2-4.7c0.5-0.2,1-0.3,1.6-0.3c0.9,0,1.8,0.3,2.6,0.6
			c1.7,0.8,3.2,2,4.3,3.4C301.5,184.7,302.2,186.5,301.6,188.2z"/>
	</g>
	<g>
		<defs>
			<rect id="SVGID_95_" x="-5" width="392.4" height="337.2"/>
		</defs>
		<clipPath id="SVGID_96_">
			<use xlink:href="#SVGID_95_"  style="overflow:visible;"/>
		</clipPath>
		<path class="st47" d="M288.8,9.9c1.1,0.4,2.3,0.8,2.9,1.8s0.2,2.2-0.3,3.3c-1.1,2.5-2.6,4.9-4.4,7.1c-1.4,1.6-3,3.1-5,4
			c-0.8,0.3-1.7,0.5-2.5,0.3c-1-0.3-1.5-1.3-1.9-2.1c-1.5-3-2.8-6-4-9.1c-0.4-1-0.8-2-0.6-3.1c0.4-2.1,2.9-3.3,5.2-3.6
			C281.8,8,285.4,8.8,288.8,9.9z"/>
	</g>
	<g>
		<defs>
			<rect id="SVGID_97_" x="-5" width="392.4" height="337.2"/>
		</defs>
		<clipPath id="SVGID_98_">
			<use xlink:href="#SVGID_97_"  style="overflow:visible;"/>
		</clipPath>
		<path class="st48" d="M301.9,14.1c0.6,0.2,1.2,0.4,1.7,0.7c0.6,0.4,1.1,0.9,1.6,1.4c1.6,1.6,4.2,2.8,4.3,5c0.1,1.8-1.5,3.3-3,4.4
			c-1.6,1.1-3.2,2.1-4.8,3c-0.8,0.5-1.7,1-2.5,1.5c-1,0.5-2,1-3.1,1.1s-2.3-0.1-3.1-0.8c-0.8-0.8-1-1.9-1.1-3
			c-0.2-1.7-0.4-3.3-0.6-5c-0.2-2-0.5-4.1,0.1-6.1c0.3-1.1,1-2.3,2.1-2.9c1.9-1.1,4.4-0.5,6.5,0.1C300.6,13.7,301.3,13.9,301.9,14.1
			z"/>
	</g>
	<g>
		<defs>
			<rect id="SVGID_99_" x="-5" width="392.4" height="337.2"/>
		</defs>
		<clipPath id="SVGID_100_">
			<use xlink:href="#SVGID_99_"  style="overflow:visible;"/>
		</clipPath>
		<path class="st49" d="M316.7,41.6c2.6-1,5.6-1.8,8.2-0.9c1.7,0.6,3,1.8,4.2,3.1c2.5,2.8,4.4,6.1,5.6,9.5c0.5,1.5,0.9,3.2,0.5,4.7
			c-0.2,0.7-0.5,1.3-0.8,1.9c-1.6,2.9-4.1,5.7-7.6,6.6c-2.2,0.5-4.6,0.2-6.5-0.9c-2.7-1.6-4.2-4.5-5.5-7.2
			c-1.8-3.6-3.6-7.5-2.9-11.5c0.2-1.2,0.6-2.3,1.4-3.3C314.1,42.7,315.4,42.1,316.7,41.6z"/>
	</g>
	<g>
		<defs>
			<rect id="SVGID_101_" x="-5" width="392.4" height="337.2"/>
		</defs>
		<clipPath id="SVGID_102_">
			<use xlink:href="#SVGID_101_"  style="overflow:visible;"/>
		</clipPath>
		<path class="st50" d="M303.6,41.4c-1.2-1.5-2.4-3.2-3-5s-0.6-3.9,0.3-5.6c0.7-1.2,1.8-2.2,2.9-3.1c0.4-0.3,0.8-0.6,1.2-0.8
			c0.6-0.2,1.2-0.2,1.8-0.2c2.2,0,4.4-0.1,6.6-0.1c1.5,0,3.2,0,4.2,1c1,0.9,1.1,2.4,1.1,3.8c0,2.3,0,4.6,0,6.9c0,0.4,0,0.7-0.1,1.1
			c-0.2,0.5-0.5,0.8-0.9,1.2c-1,1-2.1,2.1-3.6,2.6c-0.9,0.3-1.8,0.3-2.8,0.6c-1.2,0.3-2.3,0.8-3.5,0.8
			C306.1,44.2,304.7,42.8,303.6,41.4z"/>
	</g>
	<g>
		<defs>
			<rect id="SVGID_103_" x="-5" width="392.4" height="337.2"/>
		</defs>
		<clipPath id="SVGID_104_">
			<use xlink:href="#SVGID_103_"  style="overflow:visible;"/>
		</clipPath>
		<path class="st51" d="M325.6,94.1c-3.2-2.6-5.1-6.4-6.1-10.2c-0.9-3.9-0.9-7.8-0.7-11.8c0-0.9,0.1-1.8,0.6-2.6
			c0.9-1.6,3-2.2,4.9-2.6c2.7-0.6,5.4-1.3,8.1-1.9c0.7-0.2,1.4-0.3,2.1-0.2c0.8,0.2,1.4,0.7,2,1.3c3.4,3.5,4.7,8.3,5.8,12.9
			c0.7,2.8,1.4,5.7,0.2,8.4c-0.7,1.6-2.1,2.9-3.5,4.2c-1.5,1.4-3.1,2.7-5,3.6s-4.2,1.2-6.2,0.4C327,95.1,326.3,94.6,325.6,94.1z"/>
	</g>
</g>
</svg>
